<?xml version="1.0" standalone="no"?>
<!DOCTYPE svg PUBLIC "-//W3C//DTD SVG 20010904//EN"
 "http://www.w3.org/TR/2001/REC-SVG-20010904/DTD/svg10.dtd">
<svg version="1.0" xmlns="http://www.w3.org/2000/svg"
 width="16.000000pt" height="16.000000pt" viewBox="0 0 16.000000 16.000000"
 preserveAspectRatio="xMidYMid meet">
<metadata>
Created by potrace 1.11, written by Peter Selinger 2001-2013
</metadata>
<g transform="translate(0.000000,16.000000) scale(0.001563,-0.001563)"
fill="#000000" stroke="none">
<path d="M3469 6254 c-558 -101 -959 -577 -959 -1139 0 -789 775 -1345 1524
-1094 166 55 349 170 459 287 l47 51 0 -199 0 -200 140 0 140 0 0 198 0 197
74 -71 c286 -276 697 -386 1086 -289 286 71 551 267 702 518 l35 58 41 -68
c116 -196 335 -379 553 -463 129 -49 232 -71 375 -77 326 -14 618 95 852 321
l72 69 0 -196 0 -197 140 0 140 0 0 1155 0 1155 -140 0 -140 0 0 -197 0 -196
-67 65 c-239 229 -529 339 -857 325 -143 -6 -246 -28 -375 -77 -218 -84 -437
-267 -553 -463 l-41 -68 -35 58 c-265 441 -810 652 -1310 507 -174 -51 -346
-151 -478 -278 l-74 -71 0 197 0 198 -140 0 -140 0 0 -198 0 -197 -74 71
c-122 118 -273 210 -434 264 -174 58 -391 76 -563 44z m410 -355 c103 -26 242
-96 324 -164 119 -99 200 -219 255 -378 31 -90 36 -117 40 -227 5 -143 -9
-223 -58 -346 -103 -258 -349 -457 -624 -505 -87 -15 -279 -6 -361 16 -151 41
-319 150 -420 273 -67 81 -139 222 -166 327 -29 112 -29 289 0 400 89 335 353
572 696 624 80 13 221 4 314 -20z m2031 0 c282 -72 499 -280 590 -564 17 -53
24 -103 27 -205 6 -162 -14 -267 -77 -395 -101 -207 -259 -345 -483 -424 -101
-35 -104 -36 -262 -36 -155 0 -163 1 -255 33 -350 121 -570 424 -570 786 0
254 107 484 297 641 204 168 477 229 733 164z m2038 0 c298 -76 523 -301 603
-604 29 -110 29 -288 0 -400 -72 -278 -276 -495 -551 -587 -91 -31 -102 -32
-255 -32 -155 -1 -163 0 -255 32 -260 90 -441 271 -532 532 -32 92 -33 100
-32 255 0 152 1 165 31 252 73 217 211 383 402 482 187 97 390 121 589 70z"/>
<path d="M1530 5360 c-63 -30 -108 -75 -141 -145 -39 -80 -39 -140 -1 -220 49
-103 126 -156 237 -163 91 -6 156 20 218 87 118 126 96 316 -46 415 -53 37
-62 40 -139 43 -68 3 -91 0 -128 -17z"/>
</g>
</svg>
